<svg width="200px" height="64px" viewBox="0 0 200 64" xmlns="http://www.w3.org/2000/svg">
    <g id="SVGRepo_bgCarrier" stroke-width="0"></g>
    <g id="SVGRepo_tracerCarrier" stroke-linecap="round" stroke-linejoin="round"></g>
    <g id="SVGRepo_iconCarrier">
        <path fill="#FFFFFF" d="M32 48c-2.209 0-4 1.791-4 4s1.791 4 4 4 4-1.791 4-4-1.791-4-4-4zm0 6c-1.105 0-2-.895-2-2s.895-2 2-2 2 .895 2 2-.895 2-2 2z"></path>
        <path fill="#FFFFFF" d="M32 38c-5.514 0-10.293 2.241-13.851 5.859l1.437 1.437c3.261-3.413 7.732-5.296 12.414-5.296s9.154 1.883 12.414 5.296l1.437-1.437c-3.558-3.618-8.337-5.859-13.851-5.859zM32 28c-9.406 0-18.066 3.712-24.533 10.471l1.437 1.437c6.049-6.302 14.156-9.908 23.096-9.908 8.939 0 17.047 3.606 23.096 9.908l1.437-1.437c-6.467-6.759-15.127-10.471-24.533-10.471zM32 18c-13.298 0-25.218 5.174-34.199 14.121l1.437 1.437c8.595-8.411 19.737-13.558 31.762-13.558s23.167 5.147 31.762 13.558l1.437-1.437c-8.981-8.947-20.901-14.121-34.199-14.121z"></path>
        <text x="70" y="50" fill="#FFFFFF" font-family="Arial" font-size="24" font-weight="900">SEYPRO</text>
    </g>
</svg>
